<svg width="101" height="36" viewBox="0 0 101 36" fill="none" xmlns="http://www.w3.org/2000/svg">
<path d="M24.256 26.264H25.504C25.664 27.16 25.808 28.296 25.936 29.672C26.064 31.016 26.096 32.328 26.032 33.608C25.552 33.992 24.976 34.312 24.304 34.568C23.632 34.792 22.912 34.984 22.144 35.144C21.408 35.304 20.64 35.416 19.84 35.48C19.072 35.544 18.336 35.576 17.632 35.576C14.944 35.576 12.544 35.24 10.432 34.568C8.32 33.864 6.528 32.808 5.056 31.4C3.616 29.992 2.496 28.2 1.696 26.024C0.928 23.816 0.544 21.208 0.544 18.2C0.544 15.064 0.976 12.408 1.84 10.232C2.704 8.024 3.872 6.232 5.344 4.856C6.816 3.448 8.528 2.424 10.48 1.784C12.432 1.144 14.48 0.823999 16.624 0.823999C18.736 0.823999 20.512 0.967999 21.952 1.256C23.392 1.512 24.656 1.912 25.744 2.456C25.744 2.968 25.728 3.576 25.696 4.28C25.664 4.952 25.616 5.672 25.552 6.44C25.488 7.208 25.408 7.96 25.312 8.696C25.216 9.432 25.12 10.104 25.024 10.712H23.776L21.28 3.8C20.928 3.608 20.336 3.48 19.504 3.416C18.704 3.352 17.904 3.32 17.104 3.32C15.504 3.32 13.984 3.624 12.544 4.232C11.136 4.808 9.888 5.72 8.8 6.968C7.744 8.184 6.896 9.736 6.256 11.624C5.616 13.48 5.296 15.672 5.296 18.2C5.296 20.472 5.584 22.536 6.16 24.392C6.736 26.216 7.568 27.784 8.656 29.096C9.744 30.376 11.072 31.368 12.64 32.072C14.208 32.744 15.984 33.08 17.968 33.08C19.024 33.08 19.904 33 20.608 32.84C21.312 32.68 21.776 32.472 22 32.216L24.256 26.264ZM54.8106 29.096C53.8506 28.232 52.7946 27.224 51.6426 26.072C50.5226 24.888 49.4346 23.688 48.3786 22.472C47.3226 21.256 46.3466 20.088 45.4506 18.968C44.5546 17.848 43.8506 16.92 43.3386 16.184C41.9626 17.528 40.9706 18.84 40.3626 20.12C39.7546 21.368 39.4506 22.84 39.4506 24.536C39.4506 25.752 39.6426 26.888 40.0266 27.944C40.4426 28.968 41.0026 29.864 41.7066 30.632C42.4106 31.4 43.2586 32.008 44.2506 32.456C45.2426 32.872 46.3146 33.08 47.4666 33.08C48.9066 33.08 50.2506 32.76 51.4986 32.12C52.7466 31.448 53.8506 30.44 54.8106 29.096ZM42.4266 7.016C42.4266 7.592 42.5386 8.216 42.7626 8.888C42.9866 9.528 43.2746 10.168 43.6266 10.808C44.0106 11.448 44.4106 12.072 44.8266 12.68C45.2746 13.288 45.7066 13.832 46.1226 14.312C47.2746 13.352 48.2026 12.248 48.9066 11C49.6426 9.72 49.9306 8.216 49.7706 6.488C49.7066 5.464 49.3866 4.6 48.8106 3.896C48.2346 3.192 47.3226 2.84 46.0746 2.84C45.3706 2.84 44.7786 2.968 44.2986 3.224C43.8506 3.448 43.4826 3.768 43.1946 4.184C42.9066 4.568 42.6986 5.016 42.5706 5.528C42.4746 6.008 42.4266 6.504 42.4266 7.016ZM62.3466 35C61.6746 34.552 60.8266 34.008 59.8026 33.368C58.7786 32.696 57.6586 31.768 56.4426 30.584C55.9946 31.192 55.4346 31.8 54.7626 32.408C54.0906 32.984 53.2906 33.512 52.3626 33.992C51.4666 34.472 50.4586 34.856 49.3386 35.144C48.2186 35.432 47.0026 35.576 45.6906 35.576C43.9946 35.576 42.4586 35.32 41.0826 34.808C39.7066 34.296 38.5386 33.608 37.5786 32.744C36.6186 31.88 35.8666 30.888 35.3226 29.768C34.8106 28.648 34.5546 27.48 34.5546 26.264C34.5546 24.696 34.8426 23.288 35.4186 22.04C35.9946 20.76 36.6826 19.656 37.4826 18.728C38.2826 17.768 39.1146 16.968 39.9786 16.328C40.8426 15.656 41.5626 15.112 42.1386 14.696C41.2106 13.672 40.4266 12.472 39.7866 11.096C39.1466 9.72 38.8266 8.44 38.8266 7.256C38.8266 6.456 38.9866 5.672 39.3066 4.904C39.6266 4.104 40.0906 3.416 40.6986 2.84C41.3386 2.232 42.1066 1.752 43.0026 1.4C43.9306 1.016 44.9706 0.823999 46.1226 0.823999C48.2346 0.823999 49.9306 1.288 51.2106 2.216C52.5226 3.112 53.1786 4.424 53.1786 6.152C53.1786 7.208 52.9866 8.2 52.6026 9.128C52.2506 10.024 51.7866 10.856 51.2106 11.624C50.6346 12.392 49.9786 13.096 49.2426 13.736C48.5386 14.376 47.8346 14.968 47.1306 15.512C48.4426 17.144 49.9626 18.824 51.6906 20.552C53.4186 22.28 55.2426 24.008 57.1626 25.736C57.4186 25.384 57.7386 24.792 58.1226 23.96C58.5066 23.128 58.8586 22.152 59.1786 21.032C59.5306 19.912 59.8026 18.696 59.9946 17.384C60.2186 16.04 60.2826 14.712 60.1866 13.4C59.2266 13.208 58.2826 12.824 57.3546 12.248V11H67.0986V12.248C66.2346 12.792 65.1786 13.176 63.9306 13.4C63.6426 15.288 63.2746 17 62.8266 18.536C62.3786 20.072 61.9146 21.432 61.4346 22.616C60.9546 23.768 60.4906 24.76 60.0426 25.592C59.6266 26.392 59.2906 26.984 59.0346 27.368C60.2506 28.36 61.4346 29.288 62.5866 30.152C63.7706 30.984 65.0826 31.816 66.5226 32.648L69.1626 33.8V35H62.3466ZM80.5454 32.456C81.2814 32.616 81.9854 32.792 82.6574 32.984C83.3294 33.144 83.9854 33.352 84.6254 33.608V35H72.0014V33.608C72.7054 33.288 73.3774 33.048 74.0174 32.888C74.6574 32.728 75.2974 32.584 75.9374 32.456V3.992C75.1054 3.832 74.3694 3.656 73.7294 3.464C73.0894 3.24 72.5134 3.016 72.0014 2.792V1.4H76.2254C77.5054 1.4 78.8974 1.336 80.4014 1.208C81.9374 1.08 83.4254 1.016 84.8654 1.016C86.4334 1.016 87.8894 1.192 89.2334 1.544C90.6094 1.896 91.7934 2.456 92.7854 3.224C93.7774 3.992 94.5454 4.968 95.0894 6.152C95.6654 7.336 95.9534 8.76 95.9534 10.424C95.9534 12.76 95.3294 14.696 94.0814 16.232C92.8654 17.768 91.2014 18.872 89.0894 19.544C90.4654 21.72 91.9054 23.88 93.4094 26.024C94.9134 28.168 96.4814 30.296 98.1134 32.408L100.705 33.8V35H94.8974L93.0734 33.656C92.1774 32.536 91.3614 31.448 90.6254 30.392C89.8894 29.304 89.2014 28.216 88.5614 27.128C87.9214 26.008 87.3134 24.888 86.7374 23.768C86.1934 22.616 85.6334 21.4 85.0574 20.12H80.5454V32.456ZM83.8094 3.512C83.0414 3.512 82.4014 3.528 81.8894 3.56C81.4094 3.592 80.9614 3.656 80.5454 3.752V18.104H84.0014C86.2094 18.104 87.9534 17.4 89.2334 15.992C90.5454 14.584 91.2014 12.728 91.2014 10.424C91.2014 8.056 90.5134 6.312 89.1374 5.192C87.7614 4.072 85.9854 3.512 83.8094 3.512Z" fill="white"/>
</svg>
